HIERARCHY
ROOT root
{
	OFFSET 0.000000 0.000000 0.000000
	CHANNELS 6 Xposition Yposition Zposition Zrotation Yrotation Xrotation
	JOINT lhip
	{
		OFFSET 0.058581 -0.082280 -0.017664
		CHANNELS 3 Zrotation Yrotation Xrotation
		JOINT lknee
		{
			OFFSET 0.043451 -0.386469 0.008037
			CHANNELS 3 Zrotation Yrotation Xrotation
			JOINT lankle
			{
				OFFSET -0.014790 -0.426874 -0.037428
				CHANNELS 3 Zrotation Yrotation Xrotation
				JOINT ltoe
				{
					OFFSET 0.041054 -0.060286 0.122042
					CHANNELS 3 Zrotation Yrotation Xrotation
					End Site
					{
						OFFSET 0.000000 0.000000 0.000000
					}
				}
			}
		}
	}
	JOINT rhip
	{
		OFFSET -0.060310 -0.090513 -0.013543
		CHANNELS 3 Zrotation Yrotation Xrotation
		JOINT rknee
		{
			OFFSET -0.043257 -0.383688 -0.004843
			CHANNELS 3 Zrotation Yrotation Xrotation
			JOINT rankle
			{
				OFFSET 0.019056 -0.420046 -0.034562
				CHANNELS 3 Zrotation Yrotation Xrotation
				JOINT rtoe
				{
					OFFSET -0.034840 -0.062106 0.130323
					CHANNELS 3 Zrotation Yrotation Xrotation
					End Site
					{
						OFFSET 0.000000 0.000000 0.000000
					}
				}
			}
		}
	}
	JOINT lowerback
	{
		OFFSET 0.004439 0.124404 -0.038385
		CHANNELS 3 Zrotation Yrotation Xrotation
		JOINT upperback
		{
			OFFSET 0.004488 0.137956 0.026820
			CHANNELS 3 Zrotation Yrotation Xrotation
			JOINT chest
			{
				OFFSET -0.002265 0.056032 0.002855
				CHANNELS 3 Zrotation Yrotation Xrotation
				JOINT lowerneck
				{
					OFFSET -0.013390 0.211636 -0.033468
					CHANNELS 3 Zrotation Yrotation Xrotation
					JOINT upperneck
					{
						OFFSET 0.010113 0.088937 0.050410
						CHANNELS 3 Zrotation Yrotation Xrotation
						End Site
						{
							OFFSET 0.000000 0.000000 0.000000
						}
					}
				}
				JOINT lclavicle
				{
					OFFSET 0.071702 0.114000 -0.018898
					CHANNELS 3 Zrotation Yrotation Xrotation
					JOINT lshoulder
					{
						OFFSET 0.122921 0.045205 -0.019046
						CHANNELS 3 Zrotation Yrotation Xrotation
						JOINT lelbow
						{
							OFFSET 0.255332 -0.015649 -0.022946
							CHANNELS 3 Zrotation Yrotation Xrotation
							JOINT lwrist
							{
								OFFSET 0.265709 0.012698 -0.007375
								CHANNELS 3 Zrotation Yrotation Xrotation
								End Site
								{
									OFFSET 0.000000 0.000000 0.000000
								}
							}
						}
					}
				}
				JOINT rclavicle
				{
					OFFSET -0.082954 0.112472 -0.023707
					CHANNELS 3 Zrotation Yrotation Xrotation
					JOINT rshoulder
					{
						OFFSET -0.113228 0.046853 -0.008472
						CHANNELS 3 Zrotation Yrotation Xrotation
						JOINT relbow
						{
							OFFSET -0.260127 -0.014369 -0.031269
							CHANNELS 3 Zrotation Yrotation Xrotation
							JOINT rwrist
							{
								OFFSET -0.269108 0.006794 -0.006027
								CHANNELS 3 Zrotation Yrotation Xrotation
								End Site
								{
									OFFSET 0.000000 0.000000 0.000000
								}
							}
						}
					}
				}
			}
		}
	}
}
MOTION
Frames: 7
Frame Time: 0.033333
0.089049 -0.598343 1.013277 -2.195714 -0.191729 89.037180 2.672011 3.651695 0.982987 -3.883609 -5.838412 5.256622 0.766422 15.542022 -10.815155 0.000000 -0.000000 0.000000 -2.552322 0.611210 -5.363506 0.321119 5.124245 13.613166 4.883407 -5.876684 -7.808280 0.000000 -0.000000 0.000000 2.083944 0.911974 4.598532 3.920136 2.332577 -7.603104 0.867852 1.306588 -1.256669 -4.306400 -9.463190 4.877906 0.498312 -20.055183 -0.941696 -1.262509 17.178524 -1.301412 -15.690478 -4.944264 -13.677185 111.604064 -50.139550 -80.388309 9.966603 -8.489769 -2.551865 14.570834 -8.230476 -3.943503 52.995738 -1.879885 -6.237493 -33.760752 13.868542 -37.280454 -9.554796 -7.804368 -36.350829 
0.087798 -0.597518 1.012697 -0.698534 -0.326725 88.750556 2.687268 3.331007 0.883724 -3.856322 -6.423573 5.340608 0.551517 15.004352 -10.440655 0.000000 -0.000000 0.000000 -2.526342 0.136524 -4.889043 0.203024 4.567125 13.591468 4.596234 -6.174491 -8.025128 0.000000 -0.000000 0.000000 2.453894 0.967227 4.844616 3.022931 2.711936 -7.753789 0.418592 1.384701 -0.568796 -5.255386 -14.328155 4.566671 1.744850 -23.490187 -1.204499 -2.330518 17.887373 -1.020170 -19.387953 -3.896106 -13.201775 107.417262 -51.112463 -75.864485 9.341298 -7.433393 -3.936375 14.425272 -7.230792 -3.888041 51.510329 -1.803887 -6.387059 -34.108112 17.067216 -36.000815 -9.926064 -6.975770 -33.881505 
0.086266 -0.596221 1.012390 0.385515 -0.431797 88.465749 2.751436 3.070015 0.823447 -3.908067 -6.758657 5.536546 0.391760 14.548827 -10.269578 0.000000 -0.000000 0.000000 -2.553462 -0.085596 -4.473432 0.210792 3.981526 13.582941 4.312146 -6.352188 -8.163844 0.000000 -0.000000 0.000000 2.798858 1.053041 4.968644 2.355474 2.946522 -7.410226 -0.164929 1.388646 -0.496882 -5.988320 -17.867411 5.059024 2.419769 -26.328652 -1.261095 -3.672933 18.466086 -0.639403 -22.792339 -2.964792 -12.369663 102.625956 -51.762996 -70.957434 8.776253 -6.730959 -5.000607 14.531298 -6.408849 -3.674963 49.834978 -1.278305 -6.305177 -34.546115 20.515570 -34.651196 -10.512617 -6.016754 -31.921685 
0.083475 -0.593755 1.012158 1.544370 -0.464588 88.195012 2.972574 2.714035 0.448779 -4.016949 -6.936210 6.189588 0.261153 13.823437 -10.214131 0.000000 -0.000000 0.000000 -2.561596 -0.391451 -4.017320 0.361858 3.167448 13.332940 3.818979 -6.371122 -8.172675 0.000000 -0.000000 0.000000 3.143703 1.169530 4.904390 1.595960 3.125630 -6.784381 -0.830263 1.289181 -0.543694 -6.433571 -21.047040 6.013987 2.493878 -28.335145 -0.875384 -5.730637 19.197594 -0.115892 -27.434562 -1.443040 -11.354753 95.970251 -53.160978 -63.229273 6.509892 -6.292537 -3.502902 14.651958 -5.441202 -3.294557 47.553780 0.053259 -6.011308 -35.369421 25.803457 -32.583498 -11.092371 -4.267304 -29.671919 
0.082423 -0.593053 1.012106 1.731249 -0.419462 88.091884 3.101760 2.705869 0.393543 -4.046256 -6.999278 6.376902 0.255175 13.680057 -10.239695 0.000000 -0.000000 0.000000 -2.507744 -0.406643 -3.829360 0.442913 3.022228 13.180240 3.669358 -6.348078 -8.105344 0.000000 -0.000000 0.000000 3.208900 1.207807 4.735332 1.433509 3.160674 -6.417470 -0.976609 1.308385 -0.559621 -6.391387 -21.628980 6.416523 2.493194 -28.650963 -0.830634 -6.418041 19.303076 0.156275 -28.868769 -0.862799 -11.034602 93.791663 -53.694419 -60.689069 6.207045 -6.154264 -3.138912 14.722953 -5.008439 -3.032762 46.839860 0.521360 -5.782207 -35.753165 27.648102 -31.885012 -12.680391 -4.181006 -28.989037 
0.080287 -0.591610 1.012068 2.007882 -0.307607 87.881520 3.371895 2.536687 0.405269 -4.050620 -6.816891 6.571707 0.280031 13.260741 -10.201377 0.000000 -0.000000 0.000000 -2.457254 -0.420437 -3.418544 0.706685 2.639418 12.758284 3.440100 -6.125317 -8.042594 0.000000 -0.000000 0.000000 3.294865 1.332767 4.465037 1.208042 3.166708 -5.692591 -1.235471 1.284681 -0.598748 -6.254406 -22.492654 6.952042 2.539231 -28.751040 -0.592371 -7.711954 19.589117 0.521567 -31.492305 0.125671 -10.403967 88.877661 -54.460000 -55.929685 3.485262 -6.586484 -2.531139 14.835363 -4.458199 -2.804830 45.556846 1.647886 -5.343210 -36.972378 30.928351 -31.134040 -10.351240 -2.552905 -26.658143 
0.078148 -0.589975 1.012058 2.111974 -0.175261 87.800340 3.636730 2.437857 0.255142 -4.034363 -6.647307 6.851838 0.264356 12.996483 -10.181790 0.000000 -0.000000 0.000000 -2.363059 -0.564439 -3.194589 0.927536 2.439667 12.353804 3.267790 -5.955331 -7.980857 0.000000 -0.000000 0.000000 3.397990 1.406114 4.433443 1.009906 3.088292 -5.492974 -1.374492 1.165915 -0.468286 -6.236811 -22.979556 6.986719 2.546163 -28.428805 -0.223110 -8.544900 19.797991 0.775592 -34.464323 0.918411 -9.607059 83.360272 -55.180181 -50.613632 3.423262 -6.094366 -3.524877 14.650890 -4.121453 -2.633418 44.774523 2.708586 -4.488649 -38.212932 35.072006 -30.160151 -10.696667 -1.841800 -25.138521 
